<svg width="1024" height="1024" viewBox="0 0 1024 1024" fill="none" xmlns="http://www.w3.org/2000/svg">
<g clip-path="url(#clip0_251_66)">
<path d="M488.666 0.93302C411.6 4.26635 330.266 27.1997 263.466 64.533C128.533 139.866 36.5331 268.4 8.79981 420.266C-1.86686 478.533 -1.86686 545.466 8.79981 603.733C27.7331 707.466 76.1331 800 150 874C234.533 958.4 342.933 1009.2 464.666 1021.47C485.2 1023.6 538.666 1023.6 559.333 1021.47C578.133 1019.6 612 1014.27 628 1010.53C735.6 985.733 833.733 925.333 904.4 840.666C971.333 760.533 1010.8 665.733 1021.47 559.333C1023.87 536 1023.47 483.466 1020.8 458.933C1005.07 313.866 932.667 186.8 816.4 100.4C736.667 41.0664 643.067 7.46635 540 1.33302C519.066 0.13302 510 -0.000313774 488.666 0.93302ZM371.733 272C376.666 274.133 392.133 288.933 444.266 341.066L510.666 407.333L577.6 340.533C652.4 266 649.067 268.666 667.467 268.666C683.467 268.8 686.267 270.8 726.8 311.6C766.133 351.2 766.667 352 766.667 368.8C766.667 386.533 768.667 384 695.333 457.333C659.067 493.6 629.333 523.866 629.333 524.666C629.333 525.333 659.2 556 695.867 592.666C758.267 655.2 762.533 659.733 764.667 666.533C767.867 676.266 766.933 691.733 762.8 700C758.133 709.066 693.467 773.2 684.667 777.333C675.2 781.866 658 781.866 649.333 777.466C645.2 775.333 622.267 753.466 577.067 708.266L510.666 642L444.4 708.266C399.066 753.466 376.133 775.333 372 777.466C367.066 780 363.866 780.533 354.666 780.533C337.333 780.533 335.866 779.466 294.533 737.733C262.266 705.2 258.8 701.333 256.666 694.933C253.6 685.333 254.266 670.8 258.4 662.666C260.4 658.4 280.266 637.733 327.333 590.666L393.333 524.666L326.133 457.333C251.866 382.8 254.666 386.266 254.666 368.666C254.666 352 255.333 351.066 293.866 312.266C313.066 292.933 330.8 275.866 333.333 274.266C344.133 267.6 359.6 266.666 371.733 272Z" fill="#227A3B"/>
</g>
<defs>
<clipPath id="clip0_251_66">
<rect width="1024" height="1024" fill="white"/>
</clipPath>
</defs>
</svg>
